<?xml version="1.0" encoding="utf-8"?>
<!-- Generator: Adobe Illustrator 19.0.0, SVG Export Plug-In . SVG Version: 6.00 Build 0)  -->
<svg version="1.1" id="Layer_1" xmlns="http://www.w3.org/2000/svg" xmlns:xlink="http://www.w3.org/1999/xlink" x="0px" y="0px"
	 viewBox="0 0 100 100" style="enable-background:new 0 0 100 100;" xml:space="preserve">
<style type="text/css">
	.st0{fill:#FFFFFF;}
</style>
<path id="XMLID_5_" class="st0" d="M50.8,22.5c-17.2,0-27.3,9.2-27.3,26.4s10.1,25.5,27.3,25.5s25-8.3,25-25.5S68,22.5,50.8,22.5z
	 M53.9,60.3H44v-6h10V60.3z M60.4,46.2c-0.4,0.8-0.9,1.5-1.5,2c-0.6,0.6-1.4,1-2.2,1.3c-0.9,0.3-1.8,0.6-2.7,0.8v1.8H44c0,0,0,0,0,0
	v-5.4c0.2-0.1,0.5-0.2,0.9-0.3c0.4-0.1,0.9-0.2,1.4-0.4c0.5-0.1,1.1-0.3,1.6-0.5c0.6-0.2,1.1-0.4,1.5-0.6c0.5-0.2,0.8-0.5,1.1-0.8
	c0.3-0.3,0.5-0.6,0.5-1c0-0.3-0.1-0.6-0.2-0.8c-0.1-0.2-0.3-0.4-0.4-0.6c-0.2-0.2-0.4-0.3-0.6-0.4c-0.2-0.1-0.5-0.1-0.8-0.1
	c-0.6,0-1.2,0.1-1.8,0.4c-0.6,0.3-1.1,0.7-1.5,1.3H41v-5.4c0.4-0.2,0.7-0.3,1.1-0.5c0.4-0.2,0.8-0.3,1.3-0.5
	c0.8-0.2,1.8-0.5,2.9-0.7c1.1-0.2,2.4-0.3,3.9-0.3c1.6,0,3.1,0.1,4.4,0.4c1.3,0.3,2.5,0.8,3.4,1.4c0.9,0.6,1.7,1.4,2.2,2.4
	c0.5,1,0.8,2.1,0.8,3.4C61,44.5,60.8,45.4,60.4,46.2z"/>
</svg>
