<?xml version="1.0" encoding="utf-8"?>
<!-- Generator: Adobe Illustrator 19.0.0, SVG Export Plug-In . SVG Version: 6.00 Build 0)  -->
<svg version="1.1" id="Layer_1" xmlns="http://www.w3.org/2000/svg" xmlns:xlink="http://www.w3.org/1999/xlink" x="0px" y="0px"
	 viewBox="0 0 100 100" style="enable-background:new 0 0 100 100;" xml:space="preserve">
<style type="text/css">
	.st0{fill:#FFFFFF;}
</style>
<path id="XMLID_2_" class="st0" d="M58,47.4c7.3,0,12.5,5.9,16.2,11.1c4.6,6.4,8.2,13.1,4.1,19.1c-3.5,5-7.4,5.1-11.9,5.2
	c-2.1,0.1-4.4,0.1-7,0.7c-0.6,0.1-1.7,0.6-2.9,1c-2.7,1.1-6.5,2.7-10.2,2.7c-2.5,0-4.7-0.7-6.4-2.1c-6.3-5-8.4-16.2-0.9-26.4
	C46.1,49,50.6,47.4,58,47.4 M37.7,54.5c2.5-4.2,0.2-12.3-4.8-16.6c-2.9-2.5-6.5-3.9-9.9-3.9c-3.3,0-6.1,1.3-7.8,3.7
	c-1.6,2.2-2.2,5.4-1.5,8.6c0.8,3.9,3.2,7.2,6.6,9.2c2,1.2,6,2.4,9.8,2.4l0,0C33.7,57.9,36.4,56.7,37.7,54.5 M50.2,43.9L50.2,43.9
	c0.5,0,1.1-0.1,1.6-0.2c6.4-1.5,9.8-7.7,8.9-16.7c-0.7-7.4-6.3-13.4-12.6-13.4c-0.8,0-1.5,0.1-2.3,0.3c-3.1,0.7-5.9,2.9-7.7,5.9
	c-2,3.5-2.5,7.6-1.4,11.5C38,35.7,43.8,43.9,50.2,43.9 M87.9,32.5c-0.6-2.7-2.1-5-4.3-6.3c-1.3-0.8-2.9-1.2-4.6-1.2
	c-5,0-10.1,3.6-12.2,8.5c-2.5,5.9-2.1,13.7,3.3,16.6c1.1,0.6,2.3,0.9,3.7,0.9c4.2,0,8.7-2.8,11.7-7.4C87.9,40.2,88.7,36,87.9,32.5"
	/>
</svg>
