<?xml version="1.0" encoding="utf-8"?>
<!-- Generator: Adobe Illustrator 19.0.0, SVG Export Plug-In . SVG Version: 6.00 Build 0)  -->
<svg version="1.1" id="Layer_3" xmlns="http://www.w3.org/2000/svg" xmlns:xlink="http://www.w3.org/1999/xlink" x="0px" y="0px"
	 viewBox="0 0 388.1 374.5" style="enable-background:new 0 0 388.1 374.5;" xml:space="preserve">
<style type="text/css">
	.st0{fill:#FFFFFF;}
</style>
<g>
	<path class="st0" d="M330.6,275.1c-1.9,17.7-8.5,32.5-19.6,43.9c-39.5,40.9-119.1,46.4-184-14.9C65.6,246,57.8,212.6,63.6,159.7
		C69.2,108,114.4,76,153,53.9C200.8,26.5,250.3,6,288.9,40.5c32,28.7,29.7,56.5,27,88.7c-1.2,14.8-2.7,31.6-0.9,50.5
		c0.5,4.7,2.6,12.3,5,21.1C325.7,220.9,333.5,248.7,330.6,275.1z M244.4,114.5L135.6,177l108.2,63.5L244.4,114.5z"/>
</g>
</svg>
