<?xml version="1.0" encoding="utf-8"?>
<!-- Generator: Adobe Illustrator 19.0.0, SVG Export Plug-In . SVG Version: 6.00 Build 0)  -->
<svg version="1.1" id="Layer_1" xmlns="http://www.w3.org/2000/svg" xmlns:xlink="http://www.w3.org/1999/xlink" x="0px" y="0px"
	 viewBox="0 0 100 100" style="enable-background:new 0 0 100 100;" xml:space="preserve">
<style type="text/css">
	.st0{fill:#FFFFFF;}
</style>
<path id="XMLID_9_" class="st0" d="M40.7,46.1l0-1.2c0-0.4-0.4-0.9-0.9-1l-8.2-2.3c-0.5-0.2-0.9,0.1-0.9,0.5l0,1.2
	c0,0.4,0.4,0.9,0.8,1l8.2,2.3C40.3,46.8,40.7,46.6,40.7,46.1z M40.7,50.4v-1.2c0-0.4-0.4-0.8-0.9-1l-8.2-2.3
	c-0.5-0.1-0.8,0.1-0.8,0.5v1.2c0,0.4,0.4,0.9,0.9,1l8.2,2.3C40.3,51,40.7,50.8,40.7,50.4z M40.7,54.6l0-1.2c0-0.4-0.4-0.9-0.9-1
	L31.7,50c-0.5-0.1-0.8,0.1-0.8,0.5l0,1.2c0,0.4,0.4,0.9,0.8,1l8.2,2.3C40.4,55.2,40.7,55,40.7,54.6z M72.2,58.3
	c-0.3,0.1-0.6,0.1-0.8,0.1l-7.2,0.2c-0.5,0-1-0.1-1.5-0.2c-0.8-0.3-1.6-0.7-2.1-1.4c-0.1-0.1-0.2-0.3-0.3-0.4l-3,0
	c-0.6,0-1.1-0.2-1.5-0.7c-0.3-0.3-0.5-0.8-0.5-1.2l-0.1-14.2c0-1.1,0.9-1.9,1.9-1.9l3.3,0c0.8-0.9,2-1.4,3.2-1.4l7.1-0.2
	c1.3,0,2.6,0.5,3.5,1.5l3.8,0c1.8,0,2.4-0.9,2.7-1.4c0.1-0.3,0.2-0.6,0.2-0.9c0-0.6-0.3-1.3-0.8-1.9c0-0.1-0.1-0.1-0.2-0.2
	c-0.5-0.6-10.5-11.3-20.3-11.2c-9.4,0.1-17.8,5.2-22.1,13.4l-12.4,0.1c-4.5,4.6-7.2,9-8.6,11.8c1.9,4,4.8,8.1,8.7,12L37.6,60
	c0.8,1.5,1.8,2.9,2.9,4.2c4.8,5.7,11.9,9,19.4,8.9C70,73.1,80.2,61.3,80.6,60.8c0.6-0.7,0.9-1.4,0.9-2.1c0-0.5-0.2-1-0.5-1.4
	c-0.4-0.4-1.1-0.9-2.4-0.9l-3.6,0C74.3,57.4,73.3,58.1,72.2,58.3z M23.6,44.5c-0.8-0.2-1.4-0.9-1.4-1.8c0-0.9,0.6-1.6,1.4-1.8
	c0.1,0,0.2,0,0.4,0c1,0,1.8,0.8,1.8,1.8c0,1-0.8,1.8-1.8,1.8C23.9,44.6,23.7,44.6,23.6,44.5z M23.6,55.3c-0.8-0.2-1.4-0.9-1.4-1.8
	c0-0.9,0.6-1.6,1.4-1.7c0.1,0,0.3,0,0.4,0c1,0,1.8,0.8,1.8,1.8c0,1-0.8,1.8-1.8,1.8C23.8,55.4,23.7,55.4,23.6,55.3z M31.8,56
	c-0.5,0-1-0.2-1.4-0.6c-0.3-0.3-0.6-0.8-0.6-1.4l0-11.4c0-0.5,0.2-1,0.6-1.4c0.4-0.3,0.8-0.6,1.4-0.6l8,0c0.5,0,1,0.2,1.3,0.6
	c0.4,0.4,0.6,0.8,0.6,1.4l0,11.4c0,0.5-0.2,1-0.6,1.4c-0.4,0.3-0.8,0.6-1.4,0.5L31.8,56z M73.1,40.1c-0.1-0.1-0.2-0.2-0.2-0.3
	c-0.5-0.6-1.3-0.9-2-0.9l-7.1,0.2c-0.9,0-1.8,0.5-2.2,1.3l-3.4,6.3c-0.4,0.8-0.4,1.8,0.1,2.6l3.7,6.1c0.1,0.1,0.1,0.2,0.2,0.3
	c0.5,0.6,1.3,0.9,2,0.9l7.1-0.2c0.9,0,1.8-0.5,2.2-1.4l3.4-6.3c0.2-0.4,0.3-0.8,0.3-1.2c0-0.5-0.1-0.9-0.4-1.3L73.1,40.1z"/>
</svg>
