<?xml version="1.0" encoding="utf-8"?>
<!-- Generator: Adobe Illustrator 19.0.0, SVG Export Plug-In . SVG Version: 6.00 Build 0)  -->
<svg version="1.1" id="Layer_1" xmlns="http://www.w3.org/2000/svg" xmlns:xlink="http://www.w3.org/1999/xlink" x="0px" y="0px"
	 viewBox="-40 -36 100 100" style="enable-background:new -40 -36 100 100;" xml:space="preserve">
<style type="text/css">
	.st0{fill:#FFFFFF;}
</style>
<g>
	<path class="st0" d="M-30.7,12.3c0.9-2.5,3.7-3.8,6.2-2.9c2.5,0.9,3.8,3.7,2.9,6.2c-0.9,2.5-3.7,3.8-6.2,2.9
		C-30.3,17.6-31.6,14.8-30.7,12.3z M-22.5,15.2c0.7-2-0.3-4.2-2.3-4.9c-2-0.7-4.2,0.3-4.9,2.3c-0.7,2,0.3,4.2,2.3,4.9
		C-25.4,18.2-23.3,17.2-22.5,15.2z"/>
</g>
<path class="st0" d="M55.6,18.1c0-0.1,0-0.1,0-0.2c0-0.3,0-0.7,0-1c0-0.1,0-0.3,0-0.4c0-0.3,0-0.7,0-1.1c0-0.1,0-0.3,0-0.4
	c0-0.4,0-0.8,0-1.2c0-0.1,0-0.2,0-0.3c0-0.5,0-1.1,0-1.6c0-0.5,0-1,0-1.5c0-0.1,0-0.1,0-0.2c0-0.5,0-0.9,0-1.3c0,0,0,0,0,0
	c0-0.9,0-1.8,0-2.7c0,0,0,0,0,0c3.1-1.1,1-16.9-2.5-20c-3.6-3.2-12.4-3.4-17.4-3.6c-3.6-0.1-4.1,1.5-4.2,2.3
	c-2.7-0.1-5.7-0.3-8.7-0.4c0,0,0,0,0,0c0-2.2-4.6-2.8-7.7-2.7C12-18.2,2.4-18,0.1-17.6c-2,0.3-2.9,0.7-3.4,2c0,0,0,0-0.1,0
	c-0.7,0-1.4,0.1-2.1,0.1c-0.1,0-0.1,0-0.2,0c-0.7,0-1.4,0.1-2.1,0.1c-0.1,0-0.1,0-0.2,0c-0.7,0-1.5,0.1-2.2,0.1c-0.1,0-0.1,0-0.2,0
	c-0.8,0-1.5,0.1-2.2,0.1c0,0,0,0,0,0c-0.6-2.2-3.8-1.7-5.9-1.4c-2.1,0.3-8.1,0.3-10.6,0.9c-2.5,0.6-6.7,1.1-7.9,7.6
	c-1.1,6.6-1.4,11.9-1,13.4c0.3,1.2,1,1.9,2.1,2.3c0,1.8,0,3.7,0,5.7c0,0,0,0,0,0c0,1,0,1.9,0.1,2.9c0,0,0,0,0,0c0,1,0.1,1.9,0.1,2.9
	c-1.6,0.5-2,2.2-1.8,4.3c0.1,2.2,1.2,10.3,2.5,13.9c1.3,3.6,6.1,4.6,8.4,5c2.2,0.4,7.8,0.5,10.3,0.5c2.2,0.1,4.3-0.3,4.7-1.5
	c0,0,0,0,0,0c0.7,0,1.4,0.1,2.1,0.1c0,0,0.1,0,0.1,0c0.7,0,1.5,0.1,2.2,0.1c0,0,0.1,0,0.1,0c0.7,0,1.5,0,2.3,0.1c0,0,0.1,0,0.1,0
	c0.8,0,1.5,0,2.3,0.1c0,0,0,0,0,0c0.6,1.1,2.1,2,4.2,2.1c2.6,0.1,15.6-0.2,17.7-0.4c1.7-0.2,3.5-0.7,4-2.4c2.2-0.1,4.4-0.2,6.4-0.4
	c0,0,0,0,0.1,0c0.6,0,1.2-0.1,1.8-0.1c0,0,0.1,0,0.1,0c0.2,0.3,0.9,1.3,2.1,1.8c1.4,0.6,9-0.8,11.6-1.2c2.6-0.4,6.4-0.7,8.5-3.3
	c2.2-2.6,2.4-5.4,3-10.6C57.7,22.1,57.5,18.4,55.6,18.1z M46.3,22C46.3,22,46.3,22,46.3,22l0.4,0.1c2,0.8,2.5,1.1,2.3,3.2
	c-0.1,0.7-0.2,1.9-0.6,3c-0.9,2.6-2.9,4.2-5.8,4.6c-5.2,0.8-16.4,1.8-29.5,2c-9.7,0.2-27.1,0.6-35.8-1.6c-0.2-4-0.4-8.4-0.4-9.3
	c0-0.7,0-1.1,0.2-1.5c0.2-0.5,0.6-0.7,1.2-1c1.9-0.9,3.5-2.5,4.4-4.6c1.7-4.3-0.5-9.2-4.8-10.9c-1.3-0.5-1.3-2.9-1.4-5.4
	c0-1.1,0-4.3,0-7.6c2.2-0.7,5.2-1.5,8.3-1.9c5.6-0.6,19.8-1.2,29-1.3c8.9-0.1,21.4,0.6,26.7,1.3C45.4-8,47-7,47.8-4.1l0.1,0.2
	c0.5,1.9,0.9,3.3,0.5,4.4c-0.2,0.7-0.8,1.2-1.8,1.7c-2.9,1.4-5,3.7-6,6.5l0,0C40.2,9.8,40,11,40,12.2C40,16.4,42.4,20.3,46.3,22z
	 M-25.5,35.8c-0.9-0.3-1.7-0.8-2.4-1.3c-2-1.9-2.5-3.7-3.5-8.8c-0.1-0.4-0.1-0.8-0.2-1.2l-0.2-18c0.1-2.9,0.3-5.4,0.5-6.9l0-0.3
	c0.2-1.6,0.4-3.5,1.1-5.1c0.7-1.8,1.8-3,3-3.8c0.2-0.1,0.4-0.2,0.6-0.3c0,4.4,0,9.3,0,10.7c0.1,3.2,0.1,6.7,3.1,8
	c2.9,1.2,4.4,4.4,3.2,7.3c-0.5,1.4-1.6,2.5-2.9,3.1c-0.6,0.3-2,0.9-2.7,2.6c-0.3,0.9-0.4,1.8-0.4,2.6C-26.1,25.3-25.8,31-25.5,35.8z
	 M42.2,35.7c0,0-17.7,1.3-30.6,1.4c-12.8,0.1-34.2-0.8-34.2-0.8c-0.1,0-0.1,0-0.2,0c0-0.7-0.1-1.5-0.1-2.3c7.5,2.1,21.3,2.3,35.8,2
	c13.2-0.3,24.4-1.2,29.7-2c3.3-0.5,5.5-2.3,6.6-5.3c0.5-1.3,0.6-2.5,0.7-3.3c0.3-2.8-0.6-3.4-2.9-4.3l-0.3-0.1
	C43.2,19.5,41,16,41,12.2c0-1.1,0.2-2.1,0.5-3.1c0.9-2.5,2.9-4.6,5.5-5.9c1.2-0.6,2-1.3,2.3-2.3c0.5-1.4,0.1-3-0.5-5.1l-0.1-0.2
	c-1-3.7-3.5-4.7-8.4-5.4c-5.3-0.7-17.9-1.5-26.8-1.3C4.4-11-9.8-10.4-15.5-9.8c-3.4,0.4-6.4,1.2-8.2,1.8c0-0.9,0-1.8,0-2.6
	c0.2,0,0.4,0,0.7,0c0,0,16.5-1.3,33.2-1.5c16.8-0.2,31.6,0.8,31.6,0.8c4.9,0,9,4,9,9l0.3,29C51.1,31.5,47.2,35.6,42.2,35.7z"/>
<g>
	<path class="st0" d="M43.2,11.1c0.6-1.8,2.6-2.7,4.4-2c1.8,0.6,2.7,2.6,2,4.4c-0.6,1.8-2.6,2.7-4.4,2
		C43.5,14.8,42.6,12.8,43.2,11.1z M49,13.1c0.5-1.4-0.2-2.9-1.6-3.4c-1.4-0.5-2.9,0.2-3.4,1.6c-0.5,1.4,0.2,2.9,1.6,3.4
		C46.9,15.2,48.5,14.5,49,13.1z"/>
</g>
<path class="st0" d="M11.1,0.4c-7,0-12.7,5.7-12.7,12.7s5.7,12.7,12.7,12.7c7,0,12.7-5.7,12.7-12.7S18.1,0.4,11.1,0.4z M7.9,17.9
	V8.2l8.4,4.9L7.9,17.9z"/>
</svg>
