<svg width="26" height="21" viewBox="0 0 26 21" fill="none" xmlns="http://www.w3.org/2000/svg">
<path d="M2 8.7993C1.17157 8.7993 0.5 9.47088 0.5 10.2993C0.5 11.1277 1.17157 11.7993 2 11.7993L2 8.7993ZM19.6055 11.7993C20.4339 11.7993 21.1055 11.1277 21.1055 10.2993C21.1055 9.47088 20.4339 8.7993 19.6055 8.7993L19.6055 11.7993ZM15.7614 0.93934C15.1756 0.353553 14.2258 0.353553 13.64 0.93934C13.0542 1.52513 13.0542 2.47487 13.64 3.06066L15.7614 0.93934ZM23 10.2993L24.0607 11.36L25.1213 10.2993L24.0607 9.23865L23 10.2993ZM13.64 17.5379C13.0542 18.1237 13.0542 19.0735 13.64 19.6593C14.2258 20.2451 15.1756 20.2451 15.7614 19.6593L13.64 17.5379ZM2 11.7993L19.6055 11.7993L19.6055 8.7993L2 8.7993L2 11.7993ZM13.64 3.06066L21.9393 11.36L24.0607 9.23865L15.7614 0.93934L13.64 3.06066ZM21.9393 9.23865L13.64 17.5379L15.7614 19.6593L24.0607 11.36L21.9393 9.23865Z" fill="white"/>
</svg>
