<svg width="54" height="54" viewBox="0 0 54 54" fill="none" xmlns="http://www.w3.org/2000/svg">
<circle cx="27" cy="27" r="24.5" stroke="#04274B" stroke-width="5"/>
<circle cx="19.6292" cy="21.1699" r="2.96999" fill="#04274B"/>
<circle cx="32.8294" cy="21.1699" r="2.96999" fill="#04274B"/>
<path d="M13.5698 27.2607C12.8853 26.3938 11.6277 26.2458 10.7607 26.9302C9.89375 27.6147 9.74579 28.8723 10.4302 29.7393L13.5698 27.2607ZM44.5298 29.7883C45.2413 28.9434 45.1332 27.6817 44.2883 26.9702C43.4434 26.2587 42.1817 26.3668 41.4702 27.2117L44.5298 29.7883ZM10.4302 29.7393C14.3931 34.759 18.5632 37.4384 22.6927 38.4574C26.8117 39.4737 30.6559 38.7804 33.8746 37.4792C37.0798 36.1835 39.7334 34.2599 41.5661 32.6914C42.4883 31.9021 43.2175 31.1899 43.7205 30.67C43.9723 30.4098 44.1684 30.1968 44.3044 30.0453C44.3725 29.9696 44.4257 29.9091 44.4634 29.8657C44.4823 29.844 44.4973 29.8265 44.5084 29.8135C44.5139 29.8071 44.5185 29.8017 44.522 29.7975C44.5238 29.7954 44.5254 29.7935 44.5267 29.792C44.5273 29.7912 44.5281 29.7903 44.5284 29.7899C44.5292 29.7891 44.5298 29.7883 43 28.5C41.4702 27.2117 41.4707 27.2111 41.4712 27.2105C41.4713 27.2104 41.4717 27.2099 41.4719 27.2097C41.4722 27.2094 41.4723 27.2093 41.4721 27.2094C41.4718 27.2098 41.4705 27.2113 41.4683 27.2139C41.4639 27.219 41.4558 27.2285 41.4439 27.2422C41.4202 27.2695 41.3816 27.3134 41.3289 27.3722C41.2232 27.4897 41.0609 27.6664 40.8459 27.8886C40.4153 28.3335 39.7773 28.9573 38.9652 29.6524C37.3291 31.0526 35.0452 32.6915 32.3754 33.7708C29.7191 34.8446 26.7508 35.3388 23.651 34.5739C20.5618 33.8116 17.1069 31.741 13.5698 27.2607L10.4302 29.7393Z" fill="#04274B"/>
</svg>
