<?xml version="1.0" encoding="utf-8"?>
<!-- Generator: Adobe Illustrator 19.0.0, SVG Export Plug-In . SVG Version: 6.00 Build 0)  -->
<svg version="1.1" id="Layer_3" xmlns="http://www.w3.org/2000/svg" xmlns:xlink="http://www.w3.org/1999/xlink" x="0px" y="0px"
	 viewBox="0 0 388.1 374.5" style="enable-background:new 0 0 388.1 374.5;" xml:space="preserve">
<style type="text/css">
	.st0{fill:#FFFFFF;}
</style>
<g>
	<path class="st0" d="M61.9,276.1c1.9,17.7,8.6,32.5,19.7,43.9c39.7,40.9,119.7,46.4,185-14.9c61.8-58.1,69.6-91.5,63.8-144.5
		C324.7,109,279.4,77,240.5,54.9c-48-27.4-97.8-47.9-136.6-13.4C71.7,70.2,74,98,76.7,130.1c1.2,14.8,2.7,31.6,0.9,50.5
		c-0.5,4.7-2.6,12.3-5.1,21.1C66.8,221.9,59,249.7,61.9,276.1z M148.6,115.5L258,178l-108.8,63.5L148.6,115.5z"/>
</g>
</svg>
