<?xml version="1.0" encoding="utf-8"?>
<!-- Generator: Adobe Illustrator 19.0.0, SVG Export Plug-In . SVG Version: 6.00 Build 0)  -->
<svg version="1.1" id="Layer_1" xmlns="http://www.w3.org/2000/svg" xmlns:xlink="http://www.w3.org/1999/xlink" x="0px" y="0px"
	 viewBox="0 0 100 100" style="enable-background:new 0 0 100 100;" xml:space="preserve">
<style type="text/css">
	.st0{fill:#FFFFFF;}
</style>
<path id="XMLID_10_" class="st0" d="M99,47.8c-0.1-0.5-0.6-0.9-1.2-1.1c-3.4-0.7-6.9-1.3-10.4-1.9c-0.4-0.1-1.1-0.2-1.6-0.2L85,44.4
	c-0.1,0-0.2,0-0.3,0c-0.3,0-0.6,0.1-0.8,0.2l0.6-4c0.1-0.5-0.1-1-0.4-1.3c-0.3-0.4-0.8-0.7-1.3-0.8C72,37,61.1,36.3,50.2,36.3
	c-10.9,0-21.9,0.7-32.6,2.2c-0.5,0.1-1,0.3-1.3,0.7c-0.3,0.4-0.4,0.9-0.4,1.3l0.6,4c-0.2-0.1-0.5-0.2-0.8-0.2c-0.1,0-0.2,0-0.3,0
	l-0.8,0.1c-0.4,0.1-1.1,0.2-1.6,0.2C9.5,45.4,6,46,2.6,46.7c-0.6,0.1-1.1,0.5-1.2,1.1c-0.1,0.5,0.1,1.1,0.5,1.5
	C4,51.1,6,52.9,8,54.7c-1.2,2.3-2.4,4.6-3.5,6.9c-0.3,0.5-0.2,1.1,0,1.5c0.3,0.4,0.7,0.6,1.2,0.6c0.1,0,0.2,0,0.4,0
	c5.7-1.2,11.6-2.1,17.4-2.8c1-0.1,1.7-1,1.6-2.1l-0.2-1.6c0-0.3-0.1-0.5-0.3-0.7c8.5-1,17-1.5,25.5-1.5c8.5,0,17.1,0.5,25.5,1.5
	c-0.1,0.2-0.2,0.5-0.3,0.7l-0.2,1.6c-0.1,1,0.6,1.9,1.6,2.1c5.8,0.7,11.7,1.7,17.4,2.8c0.1,0,0.3,0,0.4,0c0.5,0,1-0.2,1.2-0.6
	c0.3-0.4,0.3-1,0-1.5c-1.1-2.3-2.3-4.6-3.5-6.9c2-1.8,4-3.7,6.1-5.4C98.9,48.9,99.1,48.3,99,47.8z M23.3,59.7
	c-5.8,0.7-11.7,1.7-17.5,2.9c-0.4,0.1-0.6-0.1-0.4-0.5c1.1-2.3,2.3-4.6,3.6-6.9c0.2-0.4,0.1-0.9-0.2-1.2c-2-1.9-4.1-3.7-6.2-5.5
	c-0.3-0.3-0.2-0.6,0.2-0.7c3.4-0.7,6.9-1.3,10.3-1.9c0.4-0.1,1.1-0.2,1.6-0.2c0.3,0,0.5-0.1,0.8-0.1c0.4-0.1,0.8,0.2,0.9,0.6
	c0.5,3.5,1,7,1.5,10.4c0.1,0.4,0.4,0.7,0.9,0.6c1.4-0.2,2.8-0.4,4.2-0.6c0.4-0.1,0.8,0.2,0.8,0.6c0.1,0.5,0.1,1.1,0.2,1.6
	C24,59.3,23.7,59.7,23.3,59.7z M19.9,55.9c-0.4,0.1-0.8-0.2-0.9-0.6c-0.7-5-1.4-9.9-2.1-14.9c-0.1-0.4,0.3-0.8,0.7-0.8
	c21.6-2.9,43.4-2.9,65,0c0.4,0.1,0.8,0.4,0.7,0.8c-0.7,5-1.4,9.9-2.1,14.9c-0.1,0.4-0.4,0.7-0.9,0.6C60.4,53.2,40,53.2,19.9,55.9z
	 M97.7,48.4c-2.1,1.8-4.2,3.7-6.2,5.5c-0.3,0.3-0.4,0.8-0.2,1.2c1.2,2.3,2.4,4.6,3.6,6.9c0.2,0.4,0,0.6-0.4,0.5
	c-5.8-1.2-11.6-2.1-17.5-2.9c-0.4,0-0.7-0.4-0.6-0.8c0.1-0.5,0.1-1.1,0.2-1.6c0-0.4,0.4-0.7,0.8-0.6c1.4,0.2,2.8,0.4,4.2,0.6
	c0.4,0.1,0.8-0.2,0.9-0.6c0.5-3.5,1-7,1.5-10.4c0.1-0.4,0.5-0.7,0.9-0.6c0.3,0,0.5,0.1,0.8,0.1c0.4,0.1,1.1,0.2,1.6,0.2
	c3.4,0.5,6.9,1.2,10.3,1.9C98,47.9,98,48.2,97.7,48.4z"/>
<g id="XMLID_3_">
	<path id="XMLID_1_" class="st0" d="M42.4,43.8c0.1-0.3,0.3-0.4,0.6-0.5l4.5-0.6l2-4c0.1-0.2,0.4-0.4,0.6-0.4c0.3,0,0.5,0.2,0.6,0.4
		l2,4l4.5,0.6c0.3,0,0.5,0.2,0.6,0.5c0.1,0.3,0,0.5-0.2,0.7l-3.3,3.1l0.8,4.4c0,0.3-0.1,0.5-0.3,0.7c-0.2,0.2-0.5,0.2-0.7,0.1
		l-4-2.1l-4,2.1c-0.1,0.1-0.2,0.1-0.3,0.1c-0.1,0-0.3,0-0.4-0.1c-0.2-0.2-0.3-0.4-0.3-0.7l0.8-4.4l-3.3-3.1
		C42.4,44.3,42.4,44,42.4,43.8z"/>
</g>
</svg>
