<?xml version="1.0" encoding="utf-8"?>
<!-- Generator: Adobe Illustrator 19.0.0, SVG Export Plug-In . SVG Version: 6.00 Build 0)  -->
<svg version="1.1" id="Layer_1" xmlns="http://www.w3.org/2000/svg" xmlns:xlink="http://www.w3.org/1999/xlink" x="0px" y="0px"
	 viewBox="0 0 100 100" style="enable-background:new 0 0 100 100;" xml:space="preserve">
<style type="text/css">
	.st0{fill:#FFFFFF;}
</style>
<path id="basket-4" class="st0" d="M25,31l16.9-16.9c0.7-0.7,1.7-1.1,2.6-1.1c2.2,0,3.7,1.8,3.7,3.7c0,0.9-0.3,1.8-1.1,2.6L35.4,31
	H25z M68.2,31h10.4L61.6,14.1C60.9,13.4,60,13,59,13c-2.2,0-3.7,1.8-3.7,3.7c0,0.9,0.3,1.8,1.1,2.6L68.2,31z M81.5,45.4l-0.1,0.1
	l-13,32.3H35L22.1,45.6L22,45.4H81.5z M95,38.2H8.6v7.2h2.3c1.9,0,3.7,1.1,4.5,2.8L30.2,85h43.2l14.8-36.8c0.8-1.7,2.6-2.8,4.5-2.8
	H95V38.2z M54.4,60.2c2.6,0,4.5,2.1,5.8,4c1.7,2.3,3,4.7,1.5,6.9C60.4,72.9,59,73,57.4,73c-0.8,0-1.6,0-2.5,0.2
	c-0.2,0-0.6,0.2-1,0.4c-1,0.4-2.3,1-3.7,1c-0.9,0-1.7-0.3-2.3-0.8c-2.3-1.8-3-5.9-0.3-9.5C50.1,60.8,51.7,60.2,54.4,60.2 M47,62.8
	c0.9-1.5,0.1-4.4-1.8-6c-1-0.9-2.3-1.4-3.6-1.4c-1.2,0-2.2,0.5-2.8,1.3c-0.6,0.8-0.8,1.9-0.5,3.1c0.3,1.4,1.2,2.6,2.4,3.3
	c0.7,0.4,2.2,0.9,3.5,0.9l0,0C45.6,64,46.5,63.6,47,62.8 M51.5,59L51.5,59c0.2,0,0.4,0,0.6-0.1c2.3-0.5,3.5-2.8,3.2-6
	c-0.3-2.7-2.3-4.8-4.5-4.8c-0.3,0-0.5,0-0.8,0.1c-1.1,0.3-2.1,1-2.8,2.1c-0.7,1.3-0.9,2.7-0.5,4.2C47.1,56,49.2,59,51.5,59
	 M65.2,54.8c-0.2-1-0.8-1.8-1.6-2.3c-0.5-0.3-1-0.4-1.6-0.4c-1.8,0-3.7,1.3-4.4,3.1c-0.9,2.1-0.8,5,1.2,6c0.4,0.2,0.8,0.3,1.3,0.3
	c1.5,0,3.1-1,4.2-2.7C65.2,57.6,65.5,56.1,65.2,54.8"/>
</svg>
