<?xml version="1.0" encoding="utf-8"?>
<!-- Generator: Adobe Illustrator 19.0.0, SVG Export Plug-In . SVG Version: 6.00 Build 0)  -->
<svg version="1.1" id="Layer_1" xmlns="http://www.w3.org/2000/svg" xmlns:xlink="http://www.w3.org/1999/xlink" x="0px" y="0px"
	 viewBox="0 0 100 100" style="enable-background:new 0 0 100 100;" xml:space="preserve">
<style type="text/css">
	.st0{fill:#FFFFFF;}
</style>
<g>
	<path id="XMLID_34_" class="st0" d="M40.6,14.9c0.2,0,0.4,0.1,0.6,0.1c0.2,0.1,0.4,0.1,0.6,0.2c0.2,0.1,0.5,0.1,0.7,0.2
		c0,0,0.1,0,0.1,0c0.8,0.2,1.6,0.3,2.4,0.3c0.1,0,0.2,0,0.3,0c0.1,0,0.2,0,0.2,0c1-0.3,1.9-0.6,2.8-0.7c0.1,0,1.3-0.2,1.7-0.1
		l1.5-1.8l1.1-1.4c-0.2-0.1-0.5-0.2-0.8-0.3c-0.4-0.2-0.9-0.3-1.3-0.5c-0.5-0.2-0.9-0.3-1.4-0.4c-0.2-0.1-0.4-0.1-0.5-0.2
		c-1.9-0.6-3.9-1-6-1.4C42.2,9,41.8,9,41.4,8.9h-0.1c-0.6-0.1-1.2-0.2-1.8-0.2c-0.3,0-0.4,0.1-0.4,0.4c0,0.3,0,0.7,0,1l-0.6,0
		c0.1,1.3,0.4,2.6,0.9,4c0,0.1,0.1,0.2,0.1,0.4l0.4,0c0.1,0.1,0.1,0.3,0.2,0.4c0,0,0,0,0,0c0,0,0.1,0,0.1,0
		C40.5,14.9,40.6,14.9,40.6,14.9z"/>
	<path class="st0" d="M52.8,35.7c0.9,0,1.4,1,1.8,1.8c0.1,0.2,0.3,0.5,0.3,0.6c0.5,0.1,4.1-0.2,7-0.5c-0.1-0.1-0.1-0.2-0.2-0.3l0,0
		c-0.2-0.4-0.4-0.7-0.6-1.1c0,0-0.1-0.1-0.1-0.1c-0.1-0.2-0.2-0.4-0.3-0.5c-0.3-0.4-0.5-0.8-0.8-1.2c-0.4-0.6-0.9-1.2-1.4-1.6
		c-0.3-0.3-0.6-0.5-0.9-0.8c0.1-0.1,0.1-0.1,0.2-0.2c-0.3-0.4-0.6-1-0.8-1.6c-0.1,0.1-0.3,0.2-0.4,0.3c0-0.2-0.1-0.4-0.1-0.6
		c0-0.2,0-0.5,0.1-0.9c0-0.1,0-0.1,0-0.1c0.1-0.3,0.2-0.7,0.3-1l0-0.1c0-0.1,0.1-0.2,0.1-0.4c0.1-0.3,0.2-0.5,0.3-0.8
		c0.1-0.3,0.3-0.6,0.4-0.9c0.2-0.4,0.4-0.8,0.6-1.4c0.5-1.1,0.8-3.1,1-3.6c0,0,0,0,0,0c0,0,0,0,0,0c-0.6-0.4-1.1-0.8-1.8-1.2
		l-0.3-0.1l-0.2-0.1c-0.1,0-0.1,0.1-0.2,0.1c-0.1,0.1-0.2,0.1-0.3,0.2c-0.1,0.1-0.2,0.2-0.2,0.2c0.1-0.1,0.1-0.2,0.2-0.3
		c0.2-0.3,0.4-0.8,0.4-0.8c0.1-0.2,0.2-0.4,0.2-0.7c0.1-0.2,0.1-0.5,0.2-0.7c0.1-0.4,0.1-0.7,0.1-1.1c0-0.2,0-0.3,0-0.5
		c0-0.4,0-0.8,0-1.2c0-0.2,0-0.3-0.1-0.5c0,0,0,0,0,0v0c-0.1-0.5-0.1-1-0.3-1.4c0-0.1,0-0.2-0.1-0.3c-0.1-0.4-0.3-0.8-0.4-1.2
		c0-0.1,0-0.1-0.1-0.2c-0.1-0.1-0.1-0.2-0.2-0.4c0,0,0-0.1-0.1-0.1c0-0.1-0.1-0.1-0.1-0.2c-0.1-0.1-0.1-0.2-0.2-0.3
		c-0.1-0.2-0.2-0.3-0.3-0.4l-0.3-0.4l-2.3,2.8l-1,1.2l-2.2,2.7c0,0-1.3,0-1.4,0c-0.3,0-0.6,0-1,0.1c-0.2,0-0.4,0.1-0.7,0.1
		c-0.5,0.1-1,0.3-1.5,0.6c-1-0.1-2-0.2-2.9-0.4c-0.3-0.1-0.7-0.2-1-0.3c-0.3-0.1-0.5-0.1-0.8-0.2c0,0,0,0,0,0l-4.5,0.4v0.5
		c0.1,0.1,0.3,0.1,0.5,0.2l0.1,0c0.3,0.1,0.6,0.2,0.9,0.3c0,0,0,0,0.1,0c0.2,0.1,0.5,0.1,0.7,0.2c0.3,0,0.6,0.1,0.9,0.1
		c0.4,0,0.8,0,1.2,0c0,0.2,0,0.4,0.1,0.5l0.1,0.2c0,0,0.3,0.8,0.3,0.9c0.1,0.4,0.2,0.8,0.4,1.4c0.1,0.3,0.1,0.6,0.2,0.9
		c0,0.3,0.1,0.9,0.1,1.1c0,0.1,0,0.2-0.1,0.2c0,0.1-0.1,0.2-0.1,0.2l-0.1,0c-0.1,0-1.6,0.1-1.8,0.1c-0.2,0-1.7,0.1-1.7,0.1
		c-0.4,0.1-0.6,0.2-0.7,0.4c-0.1,0.2-0.1,0.4-0.1,0.6c0.1,0.2,0.1,0.4,0.2,0.6c0.1,0.2,0.2,0.4,0.4,0.7c0.1,0.2,0.2,0.4,0.3,0.6
		c0,0,0,0.1,0.1,0.1c0.1,0.2,0.2,0.3,0.2,0.4c0,0.1,0,0.1,0,0.2v0c0.1,0.3,0.2,0.6,0.3,0.8c0.1,0.2,0.2,0.4,0.3,0.6
		c0.2,0.3,0.4,0.5,0.7,0.7c0.1,0,0.1,0.1,0.2,0.1c0.3,0.2,0.6,0.3,0.8,0.3c0.2,0.1,0.3,0.1,0.4,0.1c0,0,0,0.1,0.1,0.1
		c0.1,0.2,0.2,0.4,0.4,0.6c0.2,0.3,0.5,0.5,0.8,0.7c0.5,0.3,0.9,0.4,1.4,0.4c0.1,0,1.9-0.1,2.2-0.1c0.4,0,0.7-0.1,1-0.1
		c0.2,0,0.4,0,0.4,0c0.2,0.1,0.3,0.2,0.4,0.3c0.2,0.2,0.3,0.5,0.3,0.7c0.1,0.2,0,0.5,0,0.5c-0.2,0-0.3-0.1-0.5-0.1
		c-0.2,0.8-0.2,1.5-0.1,2.1c0.2,0,0.4,0.1,0.6,0.1l0,0.1c0,0.1,0,0.3-0.1,0.6c0,0.1,0,0.3-0.1,0.5l0,0c0,0.1,0,0.2,0,0.3
		C49.4,36,52.5,35.7,52.8,35.7C52.8,35.7,52.8,35.7,52.8,35.7z M39.3,25.2c-0.1,0.1-0.2,0.3-0.3,0.6c-0.2,0.4-0.2,0.7-0.3,0.8v0
		l0-0.1l-0.2-0.3c0,0,0-0.1-0.1-0.1c-0.1-0.2-0.2-0.3-0.3-0.5c-0.1-0.2-0.2-0.4-0.3-0.6c-0.1-0.2-0.1-0.3-0.2-0.5
		c0-0.2,0-0.4,0.1-0.5c0.1-0.1,0.3-0.2,0.7-0.3h0c0.2,0,0.5,0,0.8,0c0.1,0.2,0.2,0.5,0.2,0.7C39.4,24.6,39.4,24.9,39.3,25.2z
		 M43.9,24.3c0,0,0,0.1-0.1,0.1c-0.1-0.1-0.3-0.2-0.4-0.2c-0.1-0.1-0.2-0.1-0.2-0.2c0.1-0.1,0.2-0.3,0.3-0.4c0.1-0.3,0.2-0.6,0.2-1
		c0-0.3,0-0.5-0.1-0.8c0,0,0,0,0,0c0,0.1-0.1,0.1-0.2,0.1c-0.1,0-0.1,0-0.2-0.1c0-0.1-0.1-0.2-0.1-0.3c0-0.1,0-0.2,0.1-0.3
		c0-0.1,0.1-0.1,0.1-0.1c-0.1-0.3-0.3-0.5-0.5-0.6c0.1-0.2,0.2-0.4,0.3-0.6l0,0c0-0.1,0-0.2-0.1-0.4C43,19.3,43,19.1,43,19
		c0.2,0.2,0.4,0.4,0.5,0.6c0.6,0.8,0.9,1.7,0.9,2.7C44.3,23.3,44.2,23.9,43.9,24.3z M43.3,17.9c-0.2-0.1-0.4-0.2-0.7-0.3
		c0-0.1,0-0.1-0.1-0.1c0.3,0,0.5-0.1,0.8-0.1c0.1,0.1,0.2,0.2,0.4,0.4c0.3,0.3,0.5,0.7,0.6,1.2C43.9,18.4,43.6,18.1,43.3,17.9z"/>
	<path id="XMLID_29_" class="st0" d="M61.9,37.6c0.1,0.2,0.2,0.4,0.3,0.6C62.1,38,62,37.8,61.9,37.6z"/>
	<path id="XMLID_28_" class="st0" d="M57.9,16.3c0,0.7-0.1,1.3-0.2,2.1l0,0.2c0.5,0.3,1,0.7,1.5,1c0.1,0.1,0.2,0.1,0.3,0.2
		c0.1,0.1,0.2,0.2,0.4,0.3c0.1-0.2,0.1-0.3,0.2-0.4c0.2-0.3,0.5-0.7,0.8-1c0.1-0.1,0.2-0.1,0.2-0.2c0.3-0.2,0.5-0.5,0.9-0.7
		c0.1-0.2,0.1-0.4,0-0.5c-0.3-0.2-0.6-0.4-0.9-0.7c-0.1-0.1-0.2-0.1-0.2-0.1c-0.3-0.2-0.5-0.4-0.8-0.6c-0.5-0.3-1-0.7-1.6-1
		c-0.1,0-0.1-0.1-0.1-0.1c0,0-0.1-0.1-0.1-0.1L58,14.5l0,0.6C58,15.5,58,15.9,57.9,16.3z"/>
	<path id="XMLID_27_" class="st0" d="M5.7,66.8H2.7c-0.4,0-0.5,0.2-0.5,0.5v7.1c0,0.4,0.2,0.5,0.5,0.5h2.9c0.4,0,0.5-0.2,0.5-0.5
		v-7.1C6.2,67,6,66.8,5.7,66.8z"/>
	<path id="XMLID_26_" class="st0" d="M74.6,31.2c-3.4,0.2-6.7,0.5-7.6,0.9c-0.7,0.3-1.5,3.4-1.9,5.3c1.9-0.1,5.8-0.4,9.8-0.6
		L74.6,31.2z"/>
	<path id="XMLID_25_" class="st0" d="M84.9,46c-0.1-0.2-0.2-0.2-0.5-0.2c-0.1,0-0.2,0-0.3,0.1c-0.1,0.1-0.1,0.1-0.1,0.2l0,1.5
		c0,0.1,0.1,0.1,0.2,0.2c0.1,0,0.2,0.1,0.3,0.1c0.1,0,0.3,0,0.3-0.1c0.1-0.1,0.1-0.1,0.1-0.2l0-1L84.9,46z"/>
	<path id="XMLID_24_" class="st0" d="M85.1,36.2c-0.6-2-1.6-4.5-2-4.9C82.7,31,79,31,75.2,31.1l0.3,5.6
		C79.4,36.5,83.3,36.3,85.1,36.2z"/>
	<path class="st0" d="M43.4,77.6c0-0.2,0-0.4,0-0.5c0-0.3,0-0.6,0-0.9c0-1-0.1-2.1-0.3-3.1c-0.1-0.3-0.1-0.6-0.2-0.8
		c-0.3-1.1-0.7-2-1.2-3c-0.1-0.2-0.2-0.3-0.3-0.5c-0.6-1.1-1.4-2.1-2.3-3c-0.9-0.9-1.9-1.7-3-2.3c-1.1-0.6-2.3-1.1-3.5-1.5
		c-1.2-0.3-2.5-0.5-3.9-0.5c-1.1,0-2.1,0.1-3.1,0.3C25.5,62,25.2,62,25,62.1c-1.2,0.3-2.4,0.8-3.5,1.5c-1.1,0.6-2.1,1.4-3,2.3
		c-0.9,0.9-1.7,1.9-2.3,3c-0.4,0.6-0.7,1.2-0.9,1.9c-0.2,0.5-0.4,1.1-0.6,1.6c-0.3,1.2-0.5,2.5-0.5,3.9c0,0.2,0,0.4,0,0.6
		c0.1,1.3,0.4,2.7,0.4,2.8c0,0,0,0,0,0h0c0.2,0.8,0.4,1.5,0.7,2.3c0.8,1.8,1.8,3.3,3.1,4.7c1.3,1.3,2.9,2.4,4.7,3.1
		c0.9,0.4,1.7,0.6,2.7,0.8c1,0.2,2,0.3,3,0.3c1.4,0,2.7-0.2,3.9-0.5c1.2-0.3,2.4-0.8,3.5-1.5c1.1-0.6,2.1-1.4,3-2.3
		c0.9-0.9,1.7-1.9,2.3-3c0.6-1.1,1.1-2.3,1.5-3.5c0.1-0.5,0.2-1,0.3-1.6h0c0,0,0-0.2,0.1-0.5C43.4,77.9,43.4,77.8,43.4,77.6z
		 M38.1,80c-0.5,1.2-1.2,2.3-2.2,3.2c0,0,0,0,0,0c0,0,0,0,0,0h0c-1,1-2,1.7-3.2,2.2c-1.2,0.5-2.5,0.7-3.8,0.7
		c-1.4,0-2.6-0.2-3.8-0.7c-0.6-0.3-1.2-0.6-1.8-1c-0.5-0.4-1-0.8-1.5-1.2c-1-1-1.7-2-2.2-3.2c-0.5-1.2-0.7-2.5-0.7-3.8
		c0-1.4,0.2-2.6,0.7-3.8c0.5-1.2,1.2-2.3,2.2-3.2l0,0l0,0c0.4-0.4,0.9-0.8,1.4-1.1c0.6-0.4,1.2-0.8,1.9-1c1.2-0.5,2.5-0.7,3.8-0.7
		c1.4,0,2.6,0.2,3.8,0.7c1.2,0.5,2.3,1.2,3.2,2.2c1,1,1.7,2,2.2,3.2c0.5,1.2,0.7,2.5,0.7,3.8C38.8,77.6,38.6,78.9,38.1,80z"/>
	<path id="XMLID_21_" class="st0" d="M36.5,73.1c-0.1-0.1-0.1-0.3-0.2-0.4c-0.4-0.8-0.9-1.5-1.6-2.2C33.8,69.6,33,69,32,68.6
		c-1-0.4-2-0.6-3.1-0.6c-1.1,0-2.2,0.2-3.1,0.6c-1,0.4-1.8,1-2.7,1.8c-0.1,0.1-0.2,0.3-0.4,0.4c-0.6,0.7-1.1,1.5-1.4,2.3
		c-0.4,1-0.6,2-0.6,3.1c0,1.1,0.2,2.2,0.6,3.1c0.3,0.8,0.8,1.6,1.5,2.3c0.1,0.1,0.2,0.2,0.3,0.3c0.6,0.6,1.2,1.1,1.9,1.5
		c0.2,0.1,0.5,0.3,0.7,0.4c0.6,0.3,1.3,0.4,2,0.5c0.4,0,0.7,0.1,1.1,0.1c0.3,0,0.5,0,0.8,0c0.8-0.1,1.6-0.3,2.4-0.6
		c0.5-0.2,0.9-0.5,1.4-0.8c0.4-0.3,0.9-0.7,1.3-1.1l0,0l0,0c0.4-0.4,0.8-0.8,1.1-1.3c0.3-0.4,0.5-0.9,0.7-1.3
		c0.3-0.7,0.5-1.4,0.6-2.2c0-0.3,0-0.6,0-0.9c0-0.5,0-1-0.1-1.5C36.8,74.1,36.7,73.6,36.5,73.1z"/>
	<path class="st0" d="M31.9,44.5c-1.8,0-3.3,1.5-3.3,3.3c0,1.8,1.5,3.3,3.3,3.3c1.8,0,3.3-1.5,3.3-3.3C35.2,46,33.7,44.5,31.9,44.5z
		 M31.9,49.6c-1,0-1.7-0.8-1.7-1.7c0-1,0.8-1.7,1.7-1.7c1,0,1.7,0.8,1.7,1.7C33.6,48.8,32.8,49.6,31.9,49.6z"/>
	<g>
		<polygon id="XMLID_18_" class="st0" points="58.2,78.5 58.2,78.5 58.2,78.5 		"/>
		<polygon id="XMLID_17_" class="st0" points="58.2,78.5 60.4,78.5 59.4,78.5 		"/>
		<path class="st0" d="M95.7,70c0,0,1.5-14.6,1.2-17c-0.2-1.8-3.9-8.4-5.7-11.5c0,0,0-0.1-0.1-0.1c0,0,0-0.1,0-0.1
			C91,41.1,91,41,90.9,40.9c0,0,0,0,0,0l-0.3-0.5l-0.1-0.2c0-0.1-0.1-0.1-0.2-0.2c-0.1-0.1-0.1-0.1-0.2-0.2c0,0,0,0,0,0
			c-0.6-0.5-4.2-2.5-4.7-2.9c0,0,0,0,0,0c-3.6,0.1-16.5,0.8-20.3,1.1c0,0,0,0,0,0l-2.8,0.3c0,0,0,0,0,0c-1.6,0.2-3.4,0.4-5,0.4
			c-0.6,0-1.2,0.1-1.7,0.1c-0.5,0-0.9,0-1-0.1c-0.2-0.1-0.3-0.4-0.5-0.8c-0.3-0.6-0.7-1.4-1.3-1.5c0,0,0,0,0,0c0,0-0.1,0-0.2,0
			c-0.3,0-0.7,0.1-1.3,0.1c-1.1,0.1-2.6,0.2-3.5,0.3c0,0,0,0,0,0l0,0l-8.1,0.8l0,0c0,0-1.1,0.1-2.7,0.2l0,0L36,37.2h0l-6.7-3.8
			c0,0-2,2.8-3,4.5c0,0,0,0,0,0c-0.1,0.1-0.1,0.2-0.2,0.3c0,0,0,0,0,0c-0.1,0.1-0.1,0.2-0.2,0.3c0,0,0,0,0,0c0,0,0,0,0,0
			c-0.3,0-0.6,0.1-0.9,0.1c0,0,0,0,0,0l0,0l0,0l-0.3,0c0,0-0.1,0-0.1,0l-0.5,0.1l-1.4,0.2l-0.4-0.1l-1.1-0.2l-0.7-0.1l-0.7-0.1
			l-0.7-0.1l-0.6,0c-0.2,0-0.4,0-0.5,0.1c-0.2,0-0.3,0.1-0.4,0.2c-0.2,0.1-0.4,0.3-0.6,0.5c-0.1,0.2-0.2,0.3-0.3,0.5l-0.1,0.2l1,3.6
			l0.5,0.2l-0.5,0.8l-0.1,0l-0.3-0.1l-0.4-0.1c-0.2,0-0.3-0.1-0.5-0.1L16,44h0c-0.1,0-0.2,0-0.3,0c-0.1,0-0.2,0.1-0.2,0.1
			c-0.1,0.1-0.1,0.1-0.2,0.3L14.9,45l-0.3,0.4L14.2,46l-0.5,0.7l-0.5,0.8l-0.6,0.9l-0.6,1l-0.5,0.9L10.9,51l-0.4,0.8l-0.4,0.7
			l-0.3,0.6l-0.3,0.6l-0.4,0.9l-0.3,0.6c-0.1,0.2-0.1,0.4-0.2,0.6c-0.1,0.3-0.2,0.6-0.3,0.9l-0.2,0.6L8,58l-0.2,0.8l-0.2,0.9
			c-0.1,0.3-0.1,0.7-0.2,1c-0.1,0.4-0.1,0.7-0.1,1.1l-0.1,1.1l-0.1,1l0,0.9l0,0.7l0,0.5c0,0.2,0,0.4,0,0.7l0,1.3l0,1.6v1.7l0,1.6
			l0,1.3v1.3c-0.2,0-0.4,0.1-0.5,0.3c-0.1,0.2-0.2,0.3-0.2,0.6c0,0.2,0,0.4,0,0.5l0,0.3c0,0.1,0.1,0.2,0.1,0.2
			c0,0.1,0.1,0.1,0.2,0.2c0.1,0.1,0.1,0.1,0.2,0.1c0.1,0,0.2,0,0.2,0l1.6,0.1c0,0.1,0,0.2,0.1,0.4c0.1,0.2,0.1,0.3,0.2,0.5L9.2,79
			l0.1,0.2c0,0.1,0.1,0.1,0.2,0.2c0.1,0.1,0.2,0.1,0.2,0.2c0.1,0,0.2,0.1,0.3,0.1c0.1,0,0.2,0,0.3,0h2.1l1.5,0c0-0.1-1-4.5-0.8-5.7
			c0.2-1.5,0.7-4.9,1.7-7.5c0.3-0.9,4.7-4.7,5.9-5c3.1-0.8,9.8-0.8,15-0.5c0.8,0.1,4.4,2.2,5.1,3.2c1.9,2.8,3.8,6.7,3.9,7.7
			c0.1,1.3-0.1,4.4-0.2,6.8l-0.4,0c0,0,0,0,0,0l-0.7,0l14.9-0.1c0,0,0.8-2.2,1.2-2.9c0.1-1.7,0.2-6.1,0.2-6.2v-0.1l0-0.1
			c0.4-0.8,5.2-8.5,5.6-9c1.2-1.4,17.7-1.1,18.5-0.3c2,1.9,6.2,9.3,6.6,10.5c0.4,1.6,0,8.1,0,8.1s-0.7,0-1,0c0-0.2,0.1-0.5,0.1-0.7
			h0c0,0,0,0,0,0c0,0,0-0.1,0-0.2c0-0.3,0.1-0.6,0.1-0.9c0-0.3,0-0.6,0-0.9c0-1.4-0.2-2.7-0.5-3.9c-0.3-1.2-0.8-2.4-1.5-3.5
			c-0.1-0.1-0.1-0.2-0.2-0.3c-0.6-1-1.3-1.8-2.1-2.6c-0.9-0.9-1.9-1.7-3-2.3c-1.1-0.6-2.3-1.1-3.5-1.5c-1.2-0.3-2.5-0.5-3.9-0.5
			c-1.4,0-2.7,0.2-3.9,0.5c-1.2,0.3-2.4,0.8-3.5,1.5c-1.1,0.6-2.1,1.4-3,2.3c-0.9,0.9-1.7,1.9-2.3,3c-0.2,0.4-0.4,0.7-0.6,1.1
			c-0.4,0.8-0.7,1.6-0.9,2.4c-0.1,0.5-0.2,1-0.3,1.5c-0.1,0.6-0.2,1.2-0.2,1.8c0,0.2,0,0.3,0,0.5c0,0.1,0,0.2,0,0.3
			c0,0.7,0.1,1.7,0.2,2c0,0.1,0,0.2,0,0.2h0c0.2,1.1,0.5,2.1,0.9,3.2c0.8,1.8,1.8,3.3,3.1,4.7c1.3,1.3,2.9,2.4,4.7,3.1
			c1.8,0.8,3.7,1.1,5.7,1.1c1.4,0,2.7-0.2,3.9-0.5c1.2-0.3,2.4-0.8,3.5-1.5c1.1-0.6,2.1-1.4,3-2.3c0.9-0.9,1.7-1.9,2.3-3
			c0.6-1.1,1.1-2.3,1.5-3.5c0.1-0.4,0.2-0.8,0.3-1.3l2.9,0l3.1,0c0,0,1.7-5.8,1.2-7.9C96.4,70.3,95.7,70,95.7,70z M31.9,51.8
			c-2.2,0-3.9-1.8-3.9-3.9c0-2.2,1.8-3.9,3.9-3.9s3.9,1.8,3.9,3.9C35.8,50,34,51.8,31.9,51.8z M83.7,80c-0.5,1.2-1.2,2.3-2.2,3.2
			c0,0,0,0,0,0c0,0,0,0,0,0h0c-1,1-2,1.7-3.2,2.2c-1.2,0.5-2.5,0.7-3.8,0.7c-1.4,0-2.6-0.2-3.8-0.7c-1.2-0.5-2.3-1.2-3.2-2.2
			c-1-1-1.7-2-2.2-3.2c-0.5-1.2-0.7-2.5-0.7-3.8c0-1.4,0.2-2.6,0.7-3.8c0.5-1.2,1.2-2.3,2.2-3.2l0,0l0,0c1-1,2-1.7,3.2-2.2
			c1.2-0.5,2.5-0.7,3.8-0.7c1.4,0,2.6,0.2,3.8,0.7c1.2,0.5,2.3,1.2,3.2,2.2c1,1,1.7,2,2.2,3.2c0.5,1.2,0.7,2.5,0.7,3.8
			C84.5,77.6,84.2,78.9,83.7,80z M84.9,51c-1.1,0-2.3,0-3.5,0.1h0c-0.7,0-1.5,0-2.2,0.1c0,0-0.1,0-0.2,0c0,0.1-0.1,0.1-0.1,0.2
			c0,0,0,0,0,0l0,0c-0.1,0.1-0.2,0.2-0.2,0.2l0,0c0,0,0,0-0.1,0.1c0,0-0.1,0.1-0.1,0.1c-0.2,0.2-0.3,0.3-0.5,0.5
			c-0.2,0.1-0.4,0.3-0.6,0.4c-0.2,0.1-0.4,0.3-0.6,0.4c-0.2,0.1-0.4,0.2-0.6,0.3c-0.2,0.1-0.4,0.2-0.6,0.3c0,0-0.5,0.3-0.7,0.3
			c-0.2-0.1-0.7-0.3-0.7-0.3l0,0l0,0l-0.5-0.2c-0.2-0.1-0.4-0.2-0.7-0.4c-0.2-0.1-0.5-0.3-0.7-0.5c-0.2-0.2-0.5-0.4-0.8-0.6
			c0,0-0.1-0.1-0.1-0.1l-0.1-0.1c-0.1-0.1-0.2-0.2-0.3-0.3c-0.1-0.1-0.1-0.1-0.2-0.2c-0.2,0-0.4,0-0.5,0h0c-5,0.1-9.6,0.3-13.7,0.5
			h0c0,0,0,0,0,0c0,0,0,0-0.1,0c0,0-0.1,0-0.1,0c-1.9,0.1-3.7,0.2-5.4,0.2c-1.8,0.1-3.5,0.2-5,0.3c-2.9,0.2-5.2,0.3-6.8,0.4
			c-0.7,0.1-1.3,0.1-1.7,0.1c-0.4,0-0.6,0-0.7,0.1l-0.4,0c0,0,0.2-0.7,0.2-0.8l0,0l0,0c0.1-0.2,0.2-0.6,0.3-1l0.3,0l0.4,0l1-0.1
			l2.1-0.2l2.2-0.2l2.2-0.2l2.2-0.2l2.3-0.2l1.3-0.1l1-0.1l0.9,0l0.1,0l1.1-0.1l0.2,0l0.1,0l0.6,0l0.5,0l1-0.1l0.2,0l2.3-0.1
			l4.6-0.2l4.5-0.2l1,0c-0.5-0.8-0.8-1.7-1.1-2.7C68,46.2,68,46,67.9,45.7l-2.4,0.1l-4.3,0.3l-4.1,0.3l-0.6,0l-3.3,0.2l-1.1,0.1
			l-0.5,0l-0.6,0l-1.4,0.1l-3.2,0.3l-2.8,0.2l-2.3,0.2l-1.7,0.1l-0.9,0.1l-0.2,0l-0.2,0l-0.2,0l-0.1,0c0,0,0-0.1,0.1-0.1l0,0
			c0.2-0.6,0.5-1.1,0.8-1.7l0,0c0.3-0.5,0.5-1,0.8-1.5c0.2-0.4,0.5-0.7,0.7-1c0,0,0.1-0.1,0.1-0.1l0,0c0.3-0.3,0.5-0.5,0.8-0.6l0,0
			l0,0l0,0l0,0c0,0,0.1,0,0.1,0c0,0,0.1,0,0.2-0.1c0,0,0.1,0,0.1,0c0.4-0.1,1-0.2,2.1-0.4c0,0,0,0,0.1,0c1-0.2,2.6-0.4,4.7-0.6
			c0,0,0.1,0,0.1,0h0c2.2-0.2,5.1-0.5,8.8-0.8v0l0,0l0.1,0c0,0,0.1,0,0.2,0c0.2,0,0.4,0,0.8-0.1h0l0,0c0.7-0.1,1.6-0.1,2.8-0.2l0,0
			c0.4,0,0.9-0.1,1.4-0.1c0.8-0.1,1.7-0.1,2.6-0.2l0,0h0c0.1,0,0.2,0,0.3,0c0.9-0.1,1.9-0.1,2.8-0.2c0.2,0,0.4,0,0.5,0
			c0,0,0,0,0.1,0c0,0,0,0,0,0c0.2-0.2,1.1-0.6,1.1-0.6c1-0.4,2.9-0.7,4.4-0.7h0h0c1.4,0,2.8,0.2,4.2,0.7c0.9-0.1,1.5-0.1,1.5-0.1
			c0,0,0,0,0,0c0.5,0,0.9,0,1.2-0.1c0,0,0.1,0,0.1,0c0.3,0,0.6,0,0.8,0c0.1,0,0.1,0,0.2,0c0.1,0,0.1,0,0.2,0c0,0,0,0,0,0
			c0,0,0,0,0.1,0c0,0,0,0,0,0c0,0,0,0,0,0l0,0l0,0l0.1,0c0,0,0.1,0,0.2,0.1c0.1,0,0.2,0.1,0.3,0.1c0.1,0,0.2,0.1,0.3,0.1l0,0l0,0
			c0.5,0.2,1,0.4,1.6,0.6c0.1,0.1,0.3,0.1,0.4,0.2l0,0c0.7,0.3,1.2,0.5,1.8,0.7c0.1,0,0.2,0.1,0.2,0.1l0,0l0,0
			c0.4,0.2,0.6,0.3,0.8,0.4c0,0,0.1,0,0.1,0.1c0,0,0,0,0.1,0.1c0,0,0,0.1,0,0.1c0,0,0,0,0,0l0,0c0,0,0,0,0,0c0,0.1,0.1,0.1,0.1,0.3
			v0c0.1,0.1,0.1,0.3,0.2,0.5c0,0,0,0.1,0.1,0.1c0,0.1,0.1,0.2,0.2,0.3c0.1,0.2,0.2,0.4,0.3,0.6c0.1,0.2,0.2,0.4,0.3,0.7l0,0l0,0
			c0.1,0.2,0.2,0.5,0.3,0.7h-1.4l-2.3,0l-2,0l-2.1,0l-1,0c0,0.3-0.1,0.5-0.2,0.8c-0.2,1-0.6,2-1,2.9l2.9-0.1l2.9-0.1l2.3,0l1.8,0
			l0.9,0l0.2,0H92c0,0,0.1,0,0.1,0c0,0,0.1,0.1,0.2,0.3l0,0c0.1,0.2,0.1,0.3,0.2,0.4c0.1,0.2,0.2,0.4,0.2,0.6l0,0
			c0,0.1,0.1,0.2,0.1,0.3c0,0,0,0.1,0,0.1c0,0.1,0,0.1,0,0.2c0,0,0,0.1,0,0.1l0,0.2l-0.2,0.1c0,0,0,0,0,0l0,0l0,0l0,0l0,0
			c0,0-0.1,0-0.1,0c-0.1,0-0.2,0-0.4,0h0c-0.4,0-0.9,0-1.6,0c-0.7,0-1.5,0-2.4,0C87,50.9,86,51,84.9,51z M88.8,46
			c0-0.1-0.1-0.1-0.2-0.2c-0.1-0.1-0.2-0.1-0.3-0.1l-0.3,0c-0.3,0-0.5,0.1-0.5,0.3l-0.6,0c0.1-0.4,0.4-0.6,1-0.6l1,0
			c0.3,0,0.5,0,0.7,0.2c0.2,0.1,0.3,0.2,0.3,0.4l0,0.1c0,0.2-0.3,0.5-0.9,0.8l-0.1,0c-0.6,0.3-0.9,0.5-0.9,0.7l0,0l2,0l0,0.4l-3,0.1
			l0-0.3c0-0.2,0.3-0.5,0.9-0.8l0.1,0c0.6-0.3,0.9-0.6,0.9-0.8L88.8,46z M85.9,47.5c0,0.2-0.1,0.3-0.3,0.4c-0.2,0.1-0.4,0.2-0.7,0.2
			l-1,0c-0.3,0-0.5,0-0.7-0.2c-0.2-0.1-0.3-0.2-0.3-0.4l0-1.5c0-0.2,0.1-0.3,0.3-0.4c0.2-0.1,0.4-0.2,0.7-0.2l1,0
			c0.3,0,0.5,0,0.7,0.2c0.2,0.1,0.3,0.3,0.3,0.4L85.9,47.5z M89.2,58.5l1.9-1.9l1.9,1.9l0,0.7l-1.9-1.9l-2,2L89.2,58.5z M89.3,60.2
			l2-1.9l1.9,1.9l0,0.9l-1.9-1.9L89.3,61L89.3,60.2z M91.9,63.3l0.1,0.9l-0.8-0.4l-0.8,0.4l0.1-0.9L90,62.7l0.9-0.1l0.4-0.8l0.4,0.8
			l0.9,0.1L91.9,63.3z M91.3,60.8l-1.9,2l0-0.9l1.9-1.9l2,1.9l0,0.8L91.3,60.8z M92.5,55.2H89c-0.5,0-0.9-0.4-0.9-0.8
			c0-0.5,0.4-0.8,0.9-0.8h3.5c0.5,0,0.9,0.4,0.9,0.8C93.4,54.8,93,55.2,92.5,55.2z"/>
	</g>
	<path class="st0" d="M78.3,50.9C78.4,50.9,78.4,50.9,78.3,50.9c0.1-0.1,0.2-0.2,0.3-0.3c0.1-0.1,0.2-0.2,0.2-0.3
		c0.1-0.2,0.3-0.4,0.4-0.5c0.2-0.3,0.4-0.6,0.6-0.9c0-0.1,0.1-0.1,0.1-0.2l0,0c0.5-0.9,0.9-1.9,1.1-3c0-0.2,0.1-0.4,0.1-0.7l0,0
		c0.1-0.5,0.1-1,0.2-1.6c0-0.3,0-0.5,0-0.8v-0.6l0-0.2l-0.2-0.1l-0.6-0.2l-0.1,0l0,0l-0.1-0.1c-0.1,0-0.1-0.1-0.2-0.1
		c0,0-0.1,0-0.1-0.1c0,0-0.1-0.1-0.1-0.1c-0.1-0.1-0.1-0.2-0.2-0.3c0-0.1-0.1-0.1-0.1-0.2c0,0,0,0,0-0.1c0,0,0,0,0-0.1l0-0.1l0-0.2
		l0-0.3l0,0l0-0.1l0,0L79.4,40L79,39.9c-0.5-0.2-1.1-0.3-1.6-0.5c0,0,0,0,0,0c-0.8-0.2-1.7-0.3-2.5-0.3c0,0,0,0,0,0h0c0,0,0,0,0,0h0
		c-1.4,0-2.8,0.2-4.2,0.7L70.1,40l-0.2,0.1l0,0.1l0,0.5c0,0,0,0.1,0,0.1c0,0,0,0,0,0.1c0,0,0,0.1,0,0.1c0,0,0,0.1,0,0.1
		c0,0,0,0.1,0,0.1c-0.1,0.1-0.1,0.2-0.2,0.2c0,0,0,0-0.1,0.1c-0.1,0.1-0.2,0.1-0.3,0.2l-0.1,0l-0.1,0l-0.1,0l-0.5,0.2L68.2,42v0.2
		v0.6c0,0.3,0,0.5,0,0.8c0.1,1,0.2,1.9,0.4,2.8c0.3,1.1,0.7,2.1,1.3,3c0.1,0.2,0.3,0.5,0.5,0.7c0.2,0.3,0.5,0.6,0.7,0.9c0,0,0,0,0,0
		c0.1,0.1,0.2,0.2,0.3,0.3c0.1,0.1,0.2,0.2,0.3,0.3c0.1,0.1,0.1,0.1,0.2,0.2c0.2,0.2,0.5,0.4,0.7,0.6c0.2,0.2,0.5,0.3,0.7,0.5
		c0.2,0.1,0.4,0.2,0.6,0.3l0.5,0.2l0.4,0.2l0.1,0.1h0l0,0l0,0h0l0.1-0.1l0.4-0.2c0.2-0.1,0.4-0.2,0.6-0.3c0.2-0.1,0.4-0.2,0.6-0.3
		c0.2-0.1,0.4-0.2,0.5-0.4c0.2-0.1,0.4-0.3,0.5-0.4c0.2-0.1,0.3-0.3,0.5-0.4c0.1-0.1,0.1-0.1,0.2-0.2c0,0,0,0,0.1-0.1c0,0,0,0,0,0
		C78.2,51.1,78.3,51,78.3,50.9z M74.8,52.5l-0.1-0.1c-0.2-0.1-0.4-0.2-0.7-0.4c-0.3-0.2-0.6-0.4-0.9-0.6c-0.1,0-0.1-0.1-0.2-0.2
		c-0.1-0.1-0.2-0.1-0.3-0.2c0,0,0,0,0,0c-0.1-0.1-0.2-0.2-0.3-0.3c-0.1-0.1-0.1-0.1-0.2-0.2c-0.2-0.2-0.3-0.3-0.5-0.5
		c-0.2-0.2-0.3-0.4-0.5-0.6c-0.1-0.1-0.1-0.2-0.2-0.3c-0.6-0.9-1.1-1.9-1.4-3c-0.2-0.9-0.4-1.8-0.4-2.7c0-0.3,0-0.5,0-0.8v-0.2
		l0.2-0.1l0.1,0l0.2-0.1c0.1,0,0.2-0.1,0.3-0.2c0.1-0.1,0.2-0.1,0.3-0.2c0,0,0.1-0.1,0.1-0.1c0,0,0,0,0,0c0,0,0.1-0.1,0.1-0.1
		c0,0,0-0.1,0.1-0.1c0,0,0-0.1,0.1-0.1c0,0,0,0,0-0.1c0,0,0-0.1,0-0.1c0,0,0-0.1,0-0.1c0,0,0-0.1,0-0.1c0-0.1,0-0.1,0-0.2
		c0,0,0,0,0,0c0,0,0,0,0,0l0-0.2l0.2-0.1l0.7-0.2l0.7-0.2l0.7-0.1l0.7-0.1l0.6-0.1l0.7,0c0.5,0,0.9,0,1.4,0.1
		c0.6,0.1,1.1,0.2,1.7,0.3c0.2,0.1,0.4,0.1,0.7,0.2c0,0,0.1,0,0.1,0l0.2,0.1l0,0.2c0,0,0,0,0,0c0.1,0.3,0.2,0.6,0.3,0.8
		c0,0.1,0.1,0.1,0.1,0.2c0.1,0.1,0.2,0.2,0.3,0.3c0,0,0.1,0,0.1,0.1c0.1,0.1,0.2,0.1,0.3,0.2c0,0,0.1,0,0.1,0.1l0.1,0l0.1,0.1
		l0.2,0.1v0.2c0,0.3,0,0.5,0,0.8c0,0.8-0.2,1.5-0.3,2.3c-0.3,1.2-0.7,2.2-1.4,3.2c-0.1,0.1-0.2,0.3-0.3,0.4
		c-0.1,0.2-0.2,0.3-0.4,0.5c-0.1,0.2-0.3,0.3-0.4,0.5c-0.1,0.1-0.2,0.2-0.3,0.3c0,0.1-0.1,0.1-0.1,0.2c-0.1,0-0.1,0.1-0.2,0.1
		c-0.1,0.1-0.2,0.2-0.3,0.3c0,0,0,0,0,0c-0.2,0.1-0.3,0.2-0.5,0.4c-0.2,0.1-0.3,0.2-0.5,0.3c-0.2,0.1-0.3,0.2-0.5,0.3
		c-0.2,0.1-0.3,0.2-0.5,0.2L74.8,52.5z"/>
	<path class="st0" d="M76.9,49l0.5,0.3c0.1,0,0.2,0.1,0.2,0.1h0c0.1,0,0.1,0,0.2,0c0.1,0,0.1-0.1,0.2-0.1c0.1-0.1,0.1-0.1,0.1-0.2
		c0,0,0,0,0,0c0-0.1,0-0.1,0-0.2l-0.5-2.5l0-0.1l0-0.1l0.1-0.1l0.2-0.2l1.8-1.6c0.1-0.1,0.2-0.2,0.2-0.3c0-0.1,0-0.2,0-0.2l0-0.1
		c0,0,0-0.1-0.1-0.1c0,0-0.1-0.1-0.1-0.1c0,0-0.1,0-0.1,0c0,0,0,0,0,0l-2.7-0.4l-0.1,0L76.5,43c0,0-0.1-0.1-0.1-0.1l-1-1.9l-0.2-0.3
		l0-0.1c0-0.1-0.1-0.1-0.1-0.1c0,0,0,0,0,0c0,0,0,0-0.1,0c0,0-0.1,0-0.1-0.1c0,0-0.1,0-0.1,0c0,0-0.1,0-0.1,0c0,0-0.1,0-0.1,0.1
		c0,0-0.1,0.1-0.1,0.1c0,0-0.1,0.1-0.1,0.1l-0.1,0.1l-0.2,0.3l-1,1.8c0,0,0,0.1-0.1,0.1l-0.1,0.1l-0.1,0l-2.7,0.4
		c-0.1,0-0.1,0-0.2,0c0,0,0,0,0,0c-0.1,0-0.1,0.1-0.1,0.1l0,0l0,0l0,0v0l0,0l0,0l0,0l0,0.1l0,0.1V44c0,0,0,0.1,0.1,0.1
		c0,0.1,0.1,0.1,0.1,0.2l2,1.7l0,0.1l0,0l0,0.1v0.1l-0.4,2.5c0,0.1,0,0.2,0,0.2c0,0.1,0.1,0.1,0.1,0.2c0,0,0,0,0,0
		c0,0.1,0.1,0.1,0.2,0.1c0.1,0,0.1,0,0.2,0c0.1,0,0.2,0,0.3-0.1l0.3-0.1l2.2-1.1l0.1,0l0.1,0l0.1,0l0.1,0L76.9,49z M74.8,47.1
		c-0.2,0-0.4,0-0.6-0.1c-0.2-0.1-0.3-0.1-0.5-0.2c-0.1-0.1-0.3-0.2-0.4-0.3c-0.1-0.1-0.1-0.2-0.2-0.3c0,0,0-0.1-0.1-0.1
		c-0.1-0.2-0.1-0.3-0.1-0.5c0-0.2,0-0.4,0.1-0.5c0.1-0.2,0.1-0.3,0.2-0.4c0.1-0.1,0.2-0.3,0.4-0.4c0.1-0.1,0.3-0.2,0.5-0.2
		c0.2-0.1,0.4-0.1,0.6-0.1c0.5,0,0.9,0.2,1.2,0.5c0.3,0.3,0.5,0.7,0.5,1.2c0,0.2,0,0.4-0.1,0.5c0,0,0,0,0,0
		c-0.1,0.2-0.1,0.3-0.2,0.5c-0.1,0.1-0.2,0.2-0.4,0.3c-0.1,0.1-0.3,0.2-0.5,0.2C75.1,47,75,47.1,74.8,47.1z"/>
	<path id="XMLID_1_" class="st0" d="M81.1,71.4c-0.2-0.3-0.5-0.6-0.8-0.9c-0.8-0.8-1.7-1.4-2.6-1.8c-1-0.4-2-0.6-3.1-0.6
		c-1.1,0-2.2,0.2-3.1,0.6c-1,0.4-1.8,1-2.7,1.8c-0.1,0.1-0.2,0.2-0.3,0.3c-0.7,0.7-1.2,1.5-1.5,2.3c-0.3,0.7-0.5,1.5-0.6,2.3
		c0,0.3,0,0.6,0,0.8c0,0.4,0,0.8,0.1,1.2c0.1,0.7,0.3,1.3,0.5,1.9c0.4,1,1,1.8,1.8,2.6c0.8,0.8,1.7,1.4,2.6,1.8c0,0,0,0,0,0
		c0,0,0,0,0.1,0c0.1,0,0.2,0.1,0.2,0.1c0.1,0,0.2,0.1,0.3,0.1c0,0,0,0,0,0c0.1,0,0.2,0.1,0.3,0.1c0,0,0,0,0.1,0c0.1,0,0.2,0,0.2,0.1
		c0.1,0,0.1,0,0.2,0c0,0,0,0,0,0c0.5,0.1,1,0.1,1.6,0.1c0.2,0,0.3,0,0.5,0c0.9-0.1,1.8-0.2,2.6-0.6c0.6-0.2,1.2-0.6,1.7-1
		c0.1-0.1,0.2-0.2,0.3-0.3c0.2-0.2,0.4-0.4,0.6-0.6l0,0l0,0c0.2-0.2,0.4-0.4,0.5-0.6c0.6-0.6,1-1.3,1.3-2.1c0.4-1,0.6-2,0.6-3.1
		c0-1.1-0.2-2.2-0.6-3.1C81.8,72.5,81.5,71.9,81.1,71.4z"/>
</g>
</svg>
